<mxfile host="app.diagrams.net" agent="Mozilla/5.0 (Windows NT 10.0; Win64; x64) AppleWebKit/537.36 (KHTML, like Gecko) Chrome/134.0.0.0 Safari/537.36" version="26.1.0">
  <diagram name="Page-1" id="gFsB1ogFoOWY-mn0OcU1">
    <mxGraphModel dx="986" dy="612" grid="1" gridSize="10" guides="1" tooltips="1" connect="1" arrows="1" fold="1" page="1" pageScale="1" pageWidth="827" pageHeight="1169" math="0" shadow="0">
      <root>
        <mxCell id="0" />
        <mxCell id="1" parent="0" />
        <mxCell id="tPWiSHF358annuqyKQ60-1" value="&lt;span id=&quot;docs-internal-guid-25d10dc7-7fff-8219-5624-b3d3df08cb75&quot; style=&quot;font-weight:normal;&quot;&gt;&lt;span style=&quot;font-size: 12pt; font-family: Arial, sans-serif; background-color: transparent; font-weight: 700; font-variant-numeric: normal; font-variant-east-asian: normal; font-variant-alternates: normal; font-variant-position: normal; font-variant-emoji: normal; vertical-align: baseline; white-space-collapse: preserve;&quot;&gt;Recipe Seeker&lt;/span&gt;&lt;/span&gt;" style="swimlane;whiteSpace=wrap;html=1;" vertex="1" parent="1">
          <mxGeometry x="10" y="90" width="390" height="440" as="geometry" />
        </mxCell>
        <mxCell id="tPWiSHF358annuqyKQ60-6" value="" style="rounded=1;whiteSpace=wrap;html=1;" vertex="1" parent="tPWiSHF358annuqyKQ60-1">
          <mxGeometry x="130" y="70" width="120" height="40" as="geometry" />
        </mxCell>
        <mxCell id="tPWiSHF358annuqyKQ60-7" value="&lt;span style=&quot;&quot; data-end=&quot;441&quot; data-start=&quot;424&quot;&gt;User signs up&lt;/span&gt; by providing credentials" style="text;html=1;align=center;verticalAlign=middle;whiteSpace=wrap;rounded=0;" vertex="1" parent="tPWiSHF358annuqyKQ60-1">
          <mxGeometry x="130" y="75" width="120" height="30" as="geometry" />
        </mxCell>
        <mxCell id="tPWiSHF358annuqyKQ60-19" value="" style="rounded=1;whiteSpace=wrap;html=1;" vertex="1" parent="tPWiSHF358annuqyKQ60-1">
          <mxGeometry x="100" y="130" width="150" height="60" as="geometry" />
        </mxCell>
        <mxCell id="tPWiSHF358annuqyKQ60-20" value="&lt;br&gt;The user &lt;span style=&quot;&quot; data-end=&quot;623&quot; data-start=&quot;595&quot;&gt;searches for ingredients&lt;/span&gt; by typing keywords &lt;div&gt;&lt;br/&gt;&lt;/div&gt;" style="text;html=1;align=center;verticalAlign=middle;whiteSpace=wrap;rounded=0;" vertex="1" parent="tPWiSHF358annuqyKQ60-1">
          <mxGeometry x="100" y="150" width="150" height="30" as="geometry" />
        </mxCell>
        <mxCell id="tPWiSHF358annuqyKQ60-32" value="" style="rounded=1;whiteSpace=wrap;html=1;" vertex="1" parent="tPWiSHF358annuqyKQ60-1">
          <mxGeometry x="105" y="265" width="135" height="60" as="geometry" />
        </mxCell>
        <mxCell id="tPWiSHF358annuqyKQ60-33" value="The user &lt;span style=&quot;&quot; data-end=&quot;819&quot; data-start=&quot;788&quot;&gt;browses through the results&lt;/span&gt; and selects a recipe." style="text;html=1;align=center;verticalAlign=middle;whiteSpace=wrap;rounded=0;" vertex="1" parent="tPWiSHF358annuqyKQ60-1">
          <mxGeometry x="110" y="280" width="130" height="30" as="geometry" />
        </mxCell>
        <mxCell id="tPWiSHF358annuqyKQ60-3" value="&lt;span id=&quot;docs-internal-guid-d741e282-7fff-c643-d7a1-f52a88dc3bbc&quot; style=&quot;font-weight:normal;&quot;&gt;&lt;span style=&quot;font-size: 12pt; font-family: Arial, sans-serif; background-color: transparent; font-weight: 700; font-variant-numeric: normal; font-variant-east-asian: normal; font-variant-alternates: normal; font-variant-position: normal; font-variant-emoji: normal; vertical-align: baseline; white-space-collapse: preserve;&quot;&gt;&amp;nbsp;Recipe Finder &lt;/span&gt;&lt;/span&gt;" style="swimlane;whiteSpace=wrap;html=1;startSize=23;" vertex="1" parent="1">
          <mxGeometry x="400" y="90" width="390" height="440" as="geometry" />
        </mxCell>
        <mxCell id="tPWiSHF358annuqyKQ60-13" value="" style="rounded=1;whiteSpace=wrap;html=1;" vertex="1" parent="tPWiSHF358annuqyKQ60-3">
          <mxGeometry x="120" y="70" width="180" height="50" as="geometry" />
        </mxCell>
        <mxCell id="tPWiSHF358annuqyKQ60-14" value="The &lt;span style=&quot;&quot; data-end=&quot;537&quot; data-start=&quot;517&quot;&gt;system validates&lt;/span&gt; the credentials and creates a new account." style="text;html=1;align=center;verticalAlign=middle;whiteSpace=wrap;rounded=0;" vertex="1" parent="tPWiSHF358annuqyKQ60-3">
          <mxGeometry x="125" y="80" width="170" height="30" as="geometry" />
        </mxCell>
        <mxCell id="tPWiSHF358annuqyKQ60-23" value="" style="rounded=1;whiteSpace=wrap;html=1;" vertex="1" parent="tPWiSHF358annuqyKQ60-3">
          <mxGeometry x="120" y="160" width="180" height="60" as="geometry" />
        </mxCell>
        <mxCell id="tPWiSHF358annuqyKQ60-24" value="&lt;br&gt;The &lt;span style=&quot;&quot; data-end=&quot;724&quot; data-start=&quot;689&quot;&gt;system fetches relevant recipes&lt;/span&gt; from the database based on selected ingredients.&lt;div&gt;&lt;br/&gt;&lt;/div&gt;" style="text;html=1;align=center;verticalAlign=middle;whiteSpace=wrap;rounded=0;" vertex="1" parent="tPWiSHF358annuqyKQ60-3">
          <mxGeometry x="125" y="180" width="170" height="30" as="geometry" />
        </mxCell>
        <mxCell id="tPWiSHF358annuqyKQ60-25" style="edgeStyle=orthogonalEdgeStyle;rounded=0;orthogonalLoop=1;jettySize=auto;html=1;" edge="1" parent="tPWiSHF358annuqyKQ60-3" target="tPWiSHF358annuqyKQ60-23">
          <mxGeometry relative="1" as="geometry">
            <mxPoint x="100" y="180" as="targetPoint" />
            <mxPoint x="-140" y="180" as="sourcePoint" />
          </mxGeometry>
        </mxCell>
        <mxCell id="tPWiSHF358annuqyKQ60-41" style="edgeStyle=orthogonalEdgeStyle;rounded=0;orthogonalLoop=1;jettySize=auto;html=1;entryX=0;entryY=0.5;entryDx=0;entryDy=0;" edge="1" parent="tPWiSHF358annuqyKQ60-3" target="tPWiSHF358annuqyKQ60-42">
          <mxGeometry relative="1" as="geometry">
            <mxPoint x="120" y="290" as="targetPoint" />
            <mxPoint x="-150" y="290" as="sourcePoint" />
            <Array as="points">
              <mxPoint x="-150" y="280" />
              <mxPoint x="-150" y="300" />
              <mxPoint x="40" y="300" />
              <mxPoint x="40" y="330" />
            </Array>
          </mxGeometry>
        </mxCell>
        <mxCell id="tPWiSHF358annuqyKQ60-44" style="edgeStyle=orthogonalEdgeStyle;rounded=0;orthogonalLoop=1;jettySize=auto;html=1;exitX=0.5;exitY=1;exitDx=0;exitDy=0;endArrow=circle;endFill=0;" edge="1" parent="tPWiSHF358annuqyKQ60-3" source="tPWiSHF358annuqyKQ60-42">
          <mxGeometry relative="1" as="geometry">
            <mxPoint x="195" y="420" as="targetPoint" />
          </mxGeometry>
        </mxCell>
        <mxCell id="tPWiSHF358annuqyKQ60-42" value="" style="rounded=1;whiteSpace=wrap;html=1;" vertex="1" parent="tPWiSHF358annuqyKQ60-3">
          <mxGeometry x="135" y="300" width="120" height="60" as="geometry" />
        </mxCell>
        <mxCell id="tPWiSHF358annuqyKQ60-43" value="The &lt;span style=&quot;&quot; data-end=&quot;885&quot; data-start=&quot;851&quot;&gt;system displays recipe details&lt;/span&gt;" style="text;html=1;align=center;verticalAlign=middle;whiteSpace=wrap;rounded=0;" vertex="1" parent="tPWiSHF358annuqyKQ60-3">
          <mxGeometry x="150" y="315" width="90" height="30" as="geometry" />
        </mxCell>
        <mxCell id="tPWiSHF358annuqyKQ60-4" value="" style="endArrow=none;html=1;rounded=0;" edge="1" parent="1" source="tPWiSHF358annuqyKQ60-9" target="tPWiSHF358annuqyKQ60-6">
          <mxGeometry width="50" height="50" relative="1" as="geometry">
            <mxPoint x="200" y="130" as="sourcePoint" />
            <mxPoint x="200" y="180" as="targetPoint" />
          </mxGeometry>
        </mxCell>
        <mxCell id="tPWiSHF358annuqyKQ60-11" value="" style="endArrow=none;html=1;rounded=0;" edge="1" parent="1" target="tPWiSHF358annuqyKQ60-9">
          <mxGeometry width="50" height="50" relative="1" as="geometry">
            <mxPoint x="200" y="130" as="sourcePoint" />
            <mxPoint x="200" y="160" as="targetPoint" />
          </mxGeometry>
        </mxCell>
        <mxCell id="tPWiSHF358annuqyKQ60-9" value="" style="shape=waypoint;sketch=0;size=6;pointerEvents=1;points=[];fillColor=none;resizable=0;rotatable=0;perimeter=centerPerimeter;snapToPoint=1;" vertex="1" parent="1">
          <mxGeometry x="190" y="120" width="20" height="20" as="geometry" />
        </mxCell>
        <mxCell id="tPWiSHF358annuqyKQ60-10" value="" style="edgeStyle=orthogonalEdgeStyle;rounded=0;orthogonalLoop=1;jettySize=auto;html=1;endArrow=oval;endFill=1;" edge="1" parent="1" source="tPWiSHF358annuqyKQ60-7" target="tPWiSHF358annuqyKQ60-9">
          <mxGeometry relative="1" as="geometry" />
        </mxCell>
        <mxCell id="tPWiSHF358annuqyKQ60-12" style="edgeStyle=orthogonalEdgeStyle;rounded=0;orthogonalLoop=1;jettySize=auto;html=1;" edge="1" parent="1" source="tPWiSHF358annuqyKQ60-7" target="tPWiSHF358annuqyKQ60-13">
          <mxGeometry relative="1" as="geometry">
            <mxPoint x="500" y="180" as="targetPoint" />
          </mxGeometry>
        </mxCell>
        <mxCell id="tPWiSHF358annuqyKQ60-18" value="" style="endArrow=none;html=1;rounded=0;entryX=0.5;entryY=1;entryDx=0;entryDy=0;startArrow=classic;startFill=1;exitX=0.993;exitY=0.117;exitDx=0;exitDy=0;exitPerimeter=0;" edge="1" parent="1" source="tPWiSHF358annuqyKQ60-19" target="tPWiSHF358annuqyKQ60-13">
          <mxGeometry width="50" height="50" relative="1" as="geometry">
            <mxPoint x="260" y="240" as="sourcePoint" />
            <mxPoint x="440" y="310" as="targetPoint" />
            <Array as="points">
              <mxPoint x="610" y="230" />
            </Array>
          </mxGeometry>
        </mxCell>
        <mxCell id="tPWiSHF358annuqyKQ60-29" value="" style="endArrow=none;html=1;rounded=0;entryX=0.441;entryY=1.333;entryDx=0;entryDy=0;entryPerimeter=0;endFill=1;startArrow=classic;startFill=1;exitX=1;exitY=0;exitDx=0;exitDy=0;" edge="1" parent="1" source="tPWiSHF358annuqyKQ60-33" target="tPWiSHF358annuqyKQ60-24">
          <mxGeometry width="50" height="50" relative="1" as="geometry">
            <mxPoint x="260" y="340" as="sourcePoint" />
            <mxPoint x="440" y="310" as="targetPoint" />
            <Array as="points">
              <mxPoint x="600" y="370" />
            </Array>
          </mxGeometry>
        </mxCell>
      </root>
    </mxGraphModel>
  </diagram>
</mxfile>
